<svg width="512" height="512" viewBox="0 0 512 512" fill="none" xmlns="http://www.w3.org/2000/svg">
  <!-- Background Circle -->
  <circle cx="256" cy="256" r="256" fill="#8B6844"/>
  
  <!-- Inner Background -->
  <circle cx="256" cy="256" r="220" fill="#F5E6D3"/>
  
  <!-- Notebook/Record Book Shape Behind -->
  <rect x="160" y="140" width="192" height="250" fill="#FFFFFF" rx="8"/>
  <rect x="160" y="140" width="192" height="250" fill="none" stroke="#D4A574" stroke-width="3" rx="8"/>
  
  <!-- Notebook Lines -->
  <line x1="180" y1="200" x2="332" y2="200" stroke="#E0E0E0" stroke-width="2"/>
  <line x1="180" y1="230" x2="332" y2="230" stroke="#E0E0E0" stroke-width="2"/>
  <line x1="180" y1="260" x2="332" y2="260" stroke="#E0E0E0" stroke-width="2"/>
  <line x1="180" y1="290" x2="332" y2="290" stroke="#E0E0E0" stroke-width="2"/>
  <line x1="180" y1="320" x2="332" y2="320" stroke="#E0E0E0" stroke-width="2"/>
  <line x1="180" y1="350" x2="332" y2="350" stroke="#E0E0E0" stroke-width="2"/>
  
  <!-- Proper Shiba Inu Face -->
  <g transform="translate(256, 240)">
    <!-- Base head shape (round with wide cheeks) -->
    <ellipse cx="0" cy="0" rx="65" ry="60" fill="#D4A574"/>
    
    <!-- Lower face/jaw area -->
    <ellipse cx="0" cy="20" rx="50" ry="40" fill="#D4A574"/>
    
    <!-- Ears (triangular and upright) -->
    <path d="M -40 -45 L -30 -70 L -15 -50 Z" fill="#D4A574"/>
    <path d="M 40 -45 L 30 -70 L 15 -50 Z" fill="#D4A574"/>
    
    <!-- Inner ears -->
    <path d="M -35 -50 L -28 -63 L -20 -52 Z" fill="#8B6844"/>
    <path d="M 35 -50 L 28 -63 L 20 -52 Z" fill="#8B6844"/>
    
    <!-- White face markings (urajiro) -->
    <!-- Cheeks -->
    <ellipse cx="-35" cy="10" rx="30" ry="35" fill="#FFF5E6"/>
    <ellipse cx="35" cy="10" rx="30" ry="35" fill="#FFF5E6"/>
    
    <!-- Muzzle/mouth area -->
    <ellipse cx="0" cy="25" rx="35" ry="30" fill="#FFF5E6"/>
    
    <!-- Forehead to nose bridge -->
    <path d="M -15 -10 Q 0 -15 15 -10 L 10 10 L 0 15 L -10 10 Z" fill="#FFF5E6"/>
    
    <!-- Eyes (small and triangular) -->
    <ellipse cx="-22" cy="-10" rx="7" ry="10" fill="#2A2A2A" transform="rotate(-15 -22 -10)"/>
    <ellipse cx="22" cy="-10" rx="7" ry="10" fill="#2A2A2A" transform="rotate(15 22 -10)"/>
    
    <!-- Eye highlights -->
    <circle cx="-20" cy="-12" r="2" fill="#FFFFFF"/>
    <circle cx="24" cy="-12" r="2" fill="#FFFFFF"/>
    
    <!-- Nose (black, rounded triangle) -->
    <ellipse cx="0" cy="20" rx="5" ry="4" fill="#000000"/>
    
    <!-- Mouth (subtle smile) -->
    <path d="M 0 24 Q -12 30 -18 25" stroke="#2A2A2A" stroke-width="2" fill="none" stroke-linecap="round"/>
    <path d="M 0 24 Q 12 30 18 25" stroke="#2A2A2A" stroke-width="2" fill="none" stroke-linecap="round"/>
    
    <!-- Eyebrow spots (tan points) -->
    <ellipse cx="-25" cy="-25" rx="6" ry="4" fill="#8B6844" transform="rotate(-20 -25 -25)"/>
    <ellipse cx="25" cy="-25" rx="6" ry="4" fill="#8B6844" transform="rotate(20 25 -25)"/>
    
    <!-- Forehead color variation -->
    <ellipse cx="0" cy="-30" rx="25" ry="15" fill="#C8956D"/>
  </g>
  
  <!-- Pencil Icon (Top Right) -->
  <g transform="translate(320, 170) rotate(45 0 0)">
    <rect x="-4" y="-20" width="8" height="25" fill="#FFB84D"/>
    <polygon points="-4,-20 4,-20 0,-28" fill="#3A3A3A"/>
    <rect x="-4" y="5" width="8" height="6" fill="#FF6B6B"/>
  </g>
  
  <!-- Check Mark Icons (representing completed records) -->
  <g transform="translate(190, 200)">
    <path d="M 0 5 L 5 10 L 15 0" stroke="#50C878" stroke-width="3" fill="none" stroke-linecap="round" stroke-linejoin="round"/>
  </g>
  <g transform="translate(190, 260)">
    <path d="M 0 5 L 5 10 L 15 0" stroke="#50C878" stroke-width="3" fill="none" stroke-linecap="round" stroke-linejoin="round"/>
  </g>
  <g transform="translate(190, 320)">
    <path d="M 0 5 L 5 10 L 15 0" stroke="#50C878" stroke-width="3" fill="none" stroke-linecap="round" stroke-linejoin="round"/>
  </g>
  
  <!-- Calendar Icon (Bottom Left) -->
  <g transform="translate(170, 370)">
    <rect x="0" y="5" width="25" height="20" fill="#FFFFFF" stroke="#8B6844" stroke-width="2" rx="2"/>
    <rect x="0" y="5" width="25" height="6" fill="#8B6844" rx="2"/>
    <rect x="5" y="0" width="3" height="8" fill="#8B6844" rx="1"/>
    <rect x="17" y="0" width="3" height="8" fill="#8B6844" rx="1"/>
  </g>
  
  <!-- Heart with Pulse (Bottom Right - Health Tracking) -->
  <g transform="translate(320, 375)">
    <path d="M0,5 C-5,0 -10,0 -10,7 C-10,14 0,20 0,20 C0,20 10,14 10,7 C10,0 5,0 0,5z" fill="#FF6B6B"/>
    <polyline points="-5,10 -2,10 0,5 2,15 4,8 6,10 8,10" fill="none" stroke="#FFFFFF" stroke-width="2" stroke-linecap="round" stroke-linejoin="round"/>
  </g>
</svg>